<?xml version="1.0" encoding="UTF-8"?>
<svg id="Ebene_2" data-name="Ebene 2" xmlns="http://www.w3.org/2000/svg" viewBox="0 0 50.19 50.19">
  <defs>
    <style>
      .cls-1 {
        fill: #080808;
      }

      .cls-1, .cls-2 {
        stroke-width: 0px;
      }

      .cls-2 {
        fill: #fff;
      }
    </style>
  </defs>
  <g id="Ebene_1-2" data-name="Ebene 1">
    <g>
      <rect class="cls-1" width="50.19" height="50.19" rx="1.76" ry="1.76"/>
      <g>
        <path class="cls-2" d="M29.27,8.98l-.18,7.49-7.49-.18.18-7.49,7.49.18M31.32,7.03l-2-.05-7.49-.18-2-.05-.05,2-.18,7.49-.05,2,2,.05,7.49.18,2,.05.05-2,.18-7.49.05-2h0Z"/>
        <path class="cls-2" d="M41.11,21.5l-6.8,3.14-3.14-6.8,6.8-3.14,3.14,6.8M43.76,22.47l-.84-1.82-3.14-6.8-.84-1.82-1.82.84-6.8,3.14-1.82.84.84,1.82,3.14,6.8.84,1.82,1.82-.84,6.8-3.14,1.82-.84h0Z"/>
        <path class="cls-2" d="M35.1,37.65l-5.82-4.72,4.72-5.82,5.82,4.72-4.72,5.82M35.4,40.46l1.26-1.55,4.72-5.82,1.26-1.55-1.55-1.26-5.82-4.72-1.55-1.26-1.26,1.55-4.72,5.82-1.26,1.55,1.55,1.26,5.82,4.72,1.55,1.26h0Z"/>
        <path class="cls-2" d="M17.96,39.38l1.67-7.3,7.3,1.67-1.67,7.3-7.3-1.67M15.56,40.89l1.95.44,7.3,1.67,1.95.44.44-1.95,1.67-7.3.44-1.95-1.95-.44-7.3-1.67-1.95-.44-.44,1.95-1.67,7.3-.44,1.95h0Z"/>
        <path class="cls-2" d="M8.83,24.76l7.29-1.73,1.73,7.29-7.29,1.73-1.73-7.29M6.43,23.28l.46,1.95,1.73,7.29.46,1.95,1.95-.46,7.29-1.73,1.95-.46-.46-1.95-1.73-7.29-.46-1.95-1.95.46-7.29,1.73-1.95.46h0Z"/>
      </g>
    </g>
  </g>
</svg>