<svg width="1355" height="1355" viewBox="0 0 1355 1355" fill="none" xmlns="http://www.w3.org/2000/svg">
<g clip-path="url(#clip0_2115_35)">
<circle cx="677.5" cy="677.5" r="677.5" fill="white"/>
<path d="M416.74 1019V335.364H701.811C752.995 335.364 795.833 342.596 830.327 357.061C865.043 371.526 891.08 391.777 908.438 417.814C926.018 443.851 934.808 474.005 934.808 508.276C934.808 534.312 929.356 557.568 918.452 578.041C907.547 598.292 892.526 615.094 873.388 628.446C854.25 641.798 832.107 651.145 806.96 656.486V663.162C834.555 664.497 860.036 671.952 883.402 685.527C906.991 699.102 925.907 718.018 940.149 742.274C954.392 766.308 961.513 794.793 961.513 827.729C961.513 864.447 952.166 897.272 933.473 926.202C914.78 954.909 887.741 977.608 852.358 994.298C816.974 1010.77 774.025 1019 723.509 1019H416.74ZM581.974 885.811H684.119C719.948 885.811 746.319 879.024 763.232 865.449C780.367 851.874 788.935 832.958 788.935 808.702C788.935 791.121 784.818 775.989 776.584 763.304C768.35 750.397 756.667 740.494 741.534 733.595C726.402 726.474 708.265 722.913 687.124 722.913H581.974V885.811ZM581.974 616.429H673.438C691.463 616.429 707.486 613.425 721.506 607.416C735.526 601.408 746.43 592.729 754.219 581.379C762.23 570.03 766.236 556.344 766.236 540.321C766.236 517.4 758.113 499.374 741.868 486.244C725.623 473.115 703.703 466.55 676.108 466.55H581.974V616.429Z" fill="black"/>
</g>
<defs>
<clipPath id="clip0_2115_35">
<rect width="1355" height="1355" fill="white"/>
</clipPath>
</defs>
</svg>
