<?xml version="1.0" encoding="UTF-8"?>
<svg id="Ebene_2" data-name="Ebene 2" xmlns="http://www.w3.org/2000/svg" viewBox="0 0 397.72 395.05">
  <defs>
    <style>
      .cls-1 {
        fill: #fff;
        stroke-width: 0px;
      }
    </style>
  </defs>
  <g id="Ebene_1-2" data-name="Ebene 1">
    <g>
      <path class="cls-1" d="M303.43,94.55c9.59-2.24-.15-17.36-2.12-22.98-7-15.56-16.28-29.99-26.93-43.26-8.06-9.67-17.14-18.55-27.43-25.86-11.8-7.27-13.89,3.48-5.78,11.03,11.04,9.76,21.91,19.96,30.28,32.14,5.8,8.61,11.53,17.7,15.86,27.25,4.02,7.2,5.95,21.52,16.01,21.7h.11ZM4,260.72c-7.09,1.16-2.8,10.68-.14,14.67,9.83,16.11,20.51,30.05,33.68,43.36,10.82,9.71,22.58,18.64,35.68,24.97,6.94,3.41,14.88-.4,8.28-8.15-4.03-3.85-9.57-6.02-14.1-9.32-9.83-6.46-18.68-14.54-26.75-23.05-5.47-5.85-10.5-12.11-15.14-18.64-3.29-4.51-6.35-9.32-9.29-14.14-2.79-4.33-6.47-9.71-12.09-9.71h-.11ZM96.38,317.3c2.17-.46,3.24-2.34,2.2-4.6-2.71-5.59-9.38-7.71-14.07-11.31-6.17-4.22-11.69-9.25-17.09-14.66-6.51-6.27-12.46-13.52-17.46-21.03-4.17-5.23-9.29-18.74-17.31-16.61-6.95,4.27,4.66,17.87,7.24,22.65,7.82,12.25,17.76,22.9,29.21,31.86,6.31,4.55,19.66,15.18,27.17,13.73l.11-.03ZM271.3,101.75c7.77-1.59.34-14.99-1.4-19.45-4.84-11.14-10.87-22.13-18.57-31.58-7.19-8.68-15.06-17.21-24.29-23.67-5.11-3.44-11.12-1.74-7.21,5.36,3.24,5.58,9.29,8.88,13.44,13.73,4.22,4.51,7.92,9.5,11.52,14.51,3.79,5.24,7.09,10.56,10.21,16.48,2.39,4.69,4.49,9.66,6.63,14.62,1.66,3.93,5.28,9.93,9.56,10.01h.1Z"/>
      <path class="cls-1" d="M397.41,104.72c-2.27,13.35-10.53,24.88-14.42,37.72-4.73,13.39-7.85,28.11-6.43,42.42,3.17,19.98,6.9,39.71,8.33,59.92,5.63,34.81.8,67.27-22.43,94.91-15.36,19.61-35.25,34.78-57.21,46.15-24.83,12.45-57.98,12.34-82.61-.86-17.9-9.97-33.17-24.6-48.81-37.8-24.76-21.29-48.65-43.23-73.09-64.95-10.55-9.13-20.11-19.2-30.12-29.03-11.39-10.07-21.72-30.25-6.45-41.53,25.61-16.01,49.66,21.61,68.17,34.92,7.16,5.97,13.31,13.12,20.82,18.67,7.02,5,10.23,2.75,5.09-3.6-21.05-21.84-42.77-43.11-63.01-65.73-9.87-10.04-19.78-20.04-29.68-30.03-12.46-11.31-24.07-30.97-13.06-46.89,13.14-15.03,35.38-4.17,46.09,8.42,12.3,12.42,24.89,24.64,36.26,38.09,13.32,14.3,26.77,28.1,40.12,42.47,8.1,7.42,13.43,3.35,6.02-5.68-20.41-24.08-41.58-47.58-62.25-71.45-10.44-11.91-21.44-23.36-31.59-35.51-10.66-11.47-21.53-29.46-12.99-44.83,22.83-28.51,50.82,10.64,65.59,28.33,15.17,18.02,30.14,36.26,45.82,53.85,7.4,8.3,14.27,17.05,22.28,24.81,4.93,6.13,17.15,13.1,9.35-.5-7.69-10.72-16.09-21.03-24.08-31.4-10.65-13.89-21.12-28.01-31.68-42.02-7.55-10.59-16.95-19.94-20.08-33.09-6.01-20.58,13.61-38.26,32.68-26.2,16.78,10.28,26.21,28.67,38.33,43.61,21,28.44,41.07,57.64,64.62,84.06,13,16.13,35.93,24.41,45.41.28,5.6-13.92,2.11-31.39,10.74-44.48,8.15-12.89,20.94-22.97,36.51-24.47,13.72-1.85,30.47,4.68,27.78,21.23l-.02.17Z"/>
      <path class="cls-1" d="M303.3,94.53c-10.1-.23-11.96-14.5-16-21.69-4.3-9.5-10-18.53-15.76-27.1-8.4-12.27-19.46-22.6-30.5-32.39-8.09-7.64-5.67-18.2,5.92-10.9,10.29,7.34,19.34,16.16,27.41,25.85,10.66,13.27,19.93,27.69,26.92,43.24,2,5.71,11.69,20.68,2.11,22.97h-.11Z"/>
      <path class="cls-1" d="M4.21,260.62c5.32.12,9.42,5.6,12.08,9.89,2.94,4.82,5.98,9.6,9.27,14.12,4.64,6.52,9.63,12.75,15.1,18.6,5.64,5.96,11.49,11.52,17.96,16.68,4.17,3.31,8.41,6.25,12.8,8.93,3.69,2.44,8.11,4.17,10.83,7.71,5.11,7.73-3.25,10.04-9.12,7.1-13.07-6.32-24.78-15.23-35.57-24.92-5.29-5.05-9.63-10.38-14.19-15.85-4.68-5.76-9.21-11.59-13.26-17.78-2.05-3.09-4.11-6.32-6.18-9.73-1.73-2.92-3.9-6.68-3.93-9.96-.1-2.62,1.59-4.84,4.09-4.79h.12Z"/>
      <path class="cls-1" d="M96.36,317.3c-6.56,1.43-16.04-6.2-21.61-9.61-14.56-10.05-26.97-23.09-36.27-38.13-2.82-4.72-7.06-10.05-8-15.05-.95-5.77,3.98-7.46,8.58-3.73,4.71,3.85,7.3,10.1,10.91,14.95,7.53,11.44,17.33,21.65,27.67,30.44,4.45,3.76,9.23,6.87,14.22,9.87,3.44,1.83,11.05,8.83,4.6,11.22l-.1.03Z"/>
      <path class="cls-1" d="M271.2,101.7c-4.72-.18-8.27-6.82-10.01-11.02-2.1-4.97-4.11-9.59-6.34-13.94-2.98-5.59-6.32-10.93-10.05-16.1-3.94-5.5-7.99-10.92-12.72-15.75-3.25-3.47-7.22-6.13-10.33-9.73-4.97-5.49-4.23-12.8,4.21-8.75,9.34,5.98,17.22,14.71,24.38,23.1,8.17,9.73,14.52,21.15,19.56,32.77,1.76,4.52,9.16,17.81,1.4,19.43h-.1Z"/>
    </g>
  </g>
</svg>